<svg width="25" height="25" viewBox="0 0 25 25" fill="none" xmlns="http://www.w3.org/2000/svg">
<path d="M20.0771 8.0969L12.053 13.0581L4.07731 8.01941L4.087 6.01943L12.0627 11.0581L20.0868 6.09692M20.0965 4.09695L4.09669 4.01945C2.9867 4.01408 2.0924 4.89976 2.08702 6.00974L2.0289 18.0096C2.02633 18.54 2.23458 19.0498 2.60783 19.4266C2.98108 19.8035 3.48877 20.0167 4.01919 20.0193L20.019 20.0968C20.5494 20.0993 21.0592 19.8911 21.436 19.5178C21.8129 19.1446 22.0261 18.6369 22.0287 18.1065L22.0868 6.10661C22.0894 5.57618 21.8811 5.06646 21.5079 4.68958C21.1346 4.31269 20.6269 4.09952 20.0965 4.09695Z" fill="#001051"/>
</svg>
