<svg width="22" height="22" viewBox="0 0 22 22" fill="none" xmlns="http://www.w3.org/2000/svg">
<path d="M3.25 4.75L0.75 4.75M3.25 10.75L0.75 10.75M3.25 16.75L0.75 16.75" stroke="#001051" stroke-width="1.5" stroke-linecap="round" stroke-linejoin="round"/>
<path d="M3.25 8.75C3.25 4.979 3.25 3.093 4.422 1.922C5.594 0.751 7.479 0.75 11.25 0.75L12.75 0.75C16.521 0.75 18.407 0.75 19.578 1.922C20.749 3.094 20.75 4.979 20.75 8.75L20.75 12.75C20.75 16.521 20.75 18.407 19.578 19.578C18.406 20.749 16.521 20.75 12.75 20.75L11.25 20.75C7.479 20.75 5.593 20.75 4.422 19.578C3.251 18.406 3.25 16.521 3.25 12.75L3.25 8.75Z" fill="#001051" stroke="#001051" stroke-width="1.5"/>
<path d="M8.375 6.07275C8.60839 5.89237 8.88991 5.81174 9.16895 5.8667C9.44616 5.92141 9.67199 6.09961 9.81348 6.34131L9.8125 6.34131L10.2266 7.04639L10.4453 7.42529C10.5106 7.54255 10.5676 7.65109 10.6123 7.75244C10.7058 7.96451 10.7651 8.18256 10.7383 8.42627C10.7121 8.66962 10.6072 8.87017 10.4707 9.05811C10.3398 9.23832 10.1551 9.43886 9.94043 9.67334L8.99414 10.7036L12.374 13.9155L13.4912 12.9907L13.4922 12.9907C13.7394 12.7865 13.949 12.6115 14.1377 12.4878C14.3349 12.3585 14.5388 12.2642 14.7813 12.2407L14.958 12.2368C15.1321 12.2455 15.2969 12.2913 15.4619 12.3569C15.6725 12.4407 15.9156 12.57 16.2021 12.7212L16.9424 13.1138C17.1873 13.2431 17.3856 13.4578 17.4473 13.7397C17.5099 14.0269 17.4154 14.3096 17.2236 14.5337L17.2227 14.5347C16.5903 15.2707 15.6066 15.7515 14.5615 15.6313L14.3516 15.6001C13.6639 15.4686 12.9856 15.2486 12.165 14.8013C12.1641 14.8008 12.163 14.7998 12.1621 14.7993C10.4801 13.8667 9.07817 12.5356 8.09375 10.9331C8.09317 10.9322 8.09237 10.9311 8.0918 10.9302L7.92578 10.6431C7.56252 9.98565 7.36834 9.417 7.24609 8.84033L7.21094 8.63525C7.08107 7.61622 7.60371 6.67006 8.37402 6.07275L8.375 6.07275Z" fill="white" stroke="white" stroke-width="0.8" stroke-linejoin="round"/>
</svg>
