<svg width="41" height="50" viewBox="0 0 41 50" fill="none" xmlns="http://www.w3.org/2000/svg">
<path d="M20 4L3.5 12V21C3.5 22.5 7 37 7 38C7 38.8 15.6667 43.6667 20 46L28 43.5L38 28.5L36.5 11L20 4Z" fill="white"/>
<path d="M40.6634 22.5908C40.6634 35.1286 31.9885 46.8532 20.3317 49.6997C8.67485 46.8532 0 35.1286 0 22.5908V9.03631L20.3317 0L40.6634 9.03631V22.5908ZM20.3317 45.1815C28.8032 42.9225 36.1452 32.847 36.1452 23.0878V11.9731L20.3317 4.92479L4.51815 11.9731V23.0878C4.51815 32.847 11.8602 42.9225 20.3317 45.1815Z" fill="white"/>
<path fill-rule="evenodd" clip-rule="evenodd" d="M26.3617 17.3473V20.736C27.7172 20.736 29.0726 22.0914 29.0726 23.6728V31.5795C29.0726 32.935 27.7172 34.2904 26.1358 34.2904H13.7109C12.3554 34.2904 11 32.935 11 31.3536V23.4468C11 22.0914 12.3554 20.736 13.7109 20.736V17.3473C13.7109 14.1846 16.8736 11.6996 20.0363 11.6996C23.199 11.6996 26.3617 14.1846 26.3617 17.3473ZM16.6477 17.3473V20.736H23.4249V17.3473C23.4249 15.5401 21.8436 14.4105 20.0363 14.4105C18.229 14.4105 16.6477 15.5401 16.6477 17.3473Z" fill="#00741D"/>
</svg>
